<svg xmlns="http://www.w3.org/2000/svg" viewBox="0 0 100 100" preserveAspectRatio="xMidYMid" width="399" height="399" style="shape-rendering: auto; display: block; background: transparent;" xmlns:xlink="http://www.w3.org/1999/xlink"><g><g transform="rotate(0 50 50)">
  <rect fill="#be2929" height="11" width="5" ry="3.3000000000000003" rx="2.5" y="33.5" x="47.5">
    <animate repeatCount="indefinite" begin="-0.5602240896358543s" dur="0.6535947712418301s" keyTimes="0;1" values="1;0" attributeName="opacity"></animate>
  </rect>
</g><g transform="rotate(51.42857142857143 50 50)">
  <rect fill="#be2929" height="11" width="5" ry="3.3000000000000003" rx="2.5" y="33.5" x="47.5">
    <animate repeatCount="indefinite" begin="-0.46685340802987857s" dur="0.6535947712418301s" keyTimes="0;1" values="1;0" attributeName="opacity"></animate>
  </rect>
</g><g transform="rotate(102.85714285714286 50 50)">
  <rect fill="#be2929" height="11" width="5" ry="3.3000000000000003" rx="2.5" y="33.5" x="47.5">
    <animate repeatCount="indefinite" begin="-0.37348272642390284s" dur="0.6535947712418301s" keyTimes="0;1" values="1;0" attributeName="opacity"></animate>
  </rect>
</g><g transform="rotate(154.28571428571428 50 50)">
  <rect fill="#be2929" height="11" width="5" ry="3.3000000000000003" rx="2.5" y="33.5" x="47.5">
    <animate repeatCount="indefinite" begin="-0.2801120448179272s" dur="0.6535947712418301s" keyTimes="0;1" values="1;0" attributeName="opacity"></animate>
  </rect>
</g><g transform="rotate(205.71428571428572 50 50)">
  <rect fill="#be2929" height="11" width="5" ry="3.3000000000000003" rx="2.5" y="33.5" x="47.5">
    <animate repeatCount="indefinite" begin="-0.18674136321195142s" dur="0.6535947712418301s" keyTimes="0;1" values="1;0" attributeName="opacity"></animate>
  </rect>
</g><g transform="rotate(257.14285714285717 50 50)">
  <rect fill="#be2929" height="11" width="5" ry="3.3000000000000003" rx="2.5" y="33.5" x="47.5">
    <animate repeatCount="indefinite" begin="-0.09337068160597571s" dur="0.6535947712418301s" keyTimes="0;1" values="1;0" attributeName="opacity"></animate>
  </rect>
</g><g transform="rotate(308.57142857142856 50 50)">
  <rect fill="#be2929" height="11" width="5" ry="3.3000000000000003" rx="2.5" y="33.5" x="47.5">
    <animate repeatCount="indefinite" begin="0s" dur="0.6535947712418301s" keyTimes="0;1" values="1;0" attributeName="opacity"></animate>
  </rect>
</g><g></g></g><!-- [ldio] generated by https://loading.io --></svg>